<?xml version="1.0" encoding="utf-8" standalone="yes"?>
<!DOCTYPE svg PUBLIC "-//W3C//DTD SVG 1.1//EN" "http://www.w3.org/Graphics/SVG/1.1/DTD/svg11.dtd">
<!-- Svg Vector Icons : http://www.onlinewebfonts.com/icon --><svg xmlns="http://www.w3.org/2000/svg" xmlns:xlink="http://www.w3.org/1999/xlink" version="1.1" x="0px" y="0px" viewBox="0 0 1000 1000" enable-background="new 0 0 1000 1000" xml:space="preserve" style="zoom: 1;"><metadata> Svg Vector Icons : http://www.onlinewebfonts.com/icon </metadata><g fill="white"><g><g><g><g><path d="M990,859.7H10V221.3h330l70.2-81h181.5l81,81H990V859.7z M42.4,827.4h915.2V253.6H659.2l-81-81H425l-70.2,81H42.4V827.4z"></path></g></g><g><g><path d="M500,766.7c-119.1,0-216-96.9-216-216s96.9-216,216-216c119.1,0,216,96.9,216,216C716,669.8,619.1,766.7,500,766.7z M500,367.1c-101.2,0-183.6,82.3-183.6,183.6c0,101.3,82.4,183.6,183.6,183.6c101.2,0,183.6-82.4,183.6-183.6C683.6,449.4,601.3,367.1,500,367.1z"></path></g></g><g><g><rect x="107.1" y="313" width="91.8" height="37.8"></rect></g></g></g></g><g></g><g></g><g></g><g></g><g></g><g></g><g></g><g></g><g></g><g></g><g></g><g></g><g></g><g></g><g></g></g></svg>