<?xml version="1.0" encoding="utf-8" standalone="yes"?>
<!DOCTYPE svg PUBLIC "-//W3C//DTD SVG 1.1//EN" "http://www.w3.org/Graphics/SVG/1.1/DTD/svg11.dtd">
<!-- Svg Vector Icons : http://www.onlinewebfonts.com/icon --><svg xmlns="http://www.w3.org/2000/svg" xmlns:xlink="http://www.w3.org/1999/xlink" version="1.1" x="0px" y="0px" viewBox="0 0 1000 1000" enable-background="new 0 0 1000 1000" xml:space="preserve" style="zoom: 1;"><metadata> Svg Vector Icons : http://www.onlinewebfonts.com/icon </metadata><g fill="white"><g transform="translate(0.000000,511.000000) scale(0.100000,-0.100000)"><path d="M4179.5,4991.2 c-894.5,-44.9 -1812.5,-175.8 -2380.8,-339.8 C878.7,4385.7 453,3971.7 677.6,3563.5 c31.2,-56.6 748,-1160.1 1593.7,-2449.2 l1537.1,-2347.6 v-1699.2 c0,-1277.3 5.9,-1714.8 23.4,-1751.9 c41,-91.8 181.6,-134.8 275.4,-84 c80.1,43 1996,1386.7 2044.9,1433.6 l48.8,46.9 l9.8,1041 l9.8,1039 l662.1,1015.6 C7245.8,366.3 7927.4,1409.2 8396.2,2128 c929.7,1421.9 959,1470.7 978.5,1582 c62.5,330.1 -312.5,660.2 -1011.7,890.6 C7431.4,4907.2 5726.3,5067.4 4179.5,4991.2 M5976.3,4561.5 c1505.8,-82 2900.3,-435.5 2980.4,-751.9 c19.5,-76.2 -97.7,-201.2 -267.6,-285.1 c-457,-220.7 -1318.3,-406.2 -2312.5,-494.1 c-746.1,-66.4 -2023.4,-66.4 -2753.8,-2 c-996.1,91.8 -1865.2,277.3 -2322.2,501.9 c-160.2,78.1 -277.3,205.1 -257.8,279.3 c66.4,261.7 1082,568.4 2345.7,703.1 C4136.5,4592.8 5085.7,4612.3 5976.3,4561.5 M1826,2907.3 c623,-173.8 1455,-289.1 2441.4,-335.9 c1425.7,-68.4 3007.7,72.3 3958.9,349.6 c109.4,33.2 203.1,54.7 207,50.8 c3.9,-3.9 -585.9,-919.9 -1312.5,-2035.1 L5800.5,-1090.7 v-990.2 c0,-933.6 -2,-994.1 -35.1,-1023.4 c-19.5,-15.6 -373,-265.6 -787.1,-554.7 l-750,-523.4 l-9.8,1546.8 l-9.8,1546.8 l-99.6,156.2 c-54.7,84 -650.4,996.1 -1322.2,2023.4 c-673.8,1029.3 -1224.6,1875 -1224.6,1882.8 c0,5.9 11.7,7.8 25.4,2 C1599.4,2971.7 1708.8,2940.4 1826,2907.3 M3600,-2300 L13600,-2300 " visibility="visible"></path></g></g></svg>