<?xml version="1.0" encoding="utf-8"?>
<!-- Svg Vector Icons : http://www.onlinewebfonts.com/icon -->
<!DOCTYPE svg PUBLIC "-//W3C//DTD SVG 1.1//EN" "http://www.w3.org/Graphics/SVG/1.1/DTD/svg11.dtd">
<svg version="1.1" xmlns="http://www.w3.org/2000/svg" xmlns:xlink="http://www.w3.org/1999/xlink" x="0px" y="0px" viewBox="0 0 1000 1000" enable-background="new 0 0 1000 1000" xml:space="preserve">
<metadata> Svg Vector Icons : http://www.onlinewebfonts.com/icon </metadata>
<g fill="white"><g><path d="M880.4,439.5c67.9-163.3,43.5-328.2,42.4-335.1l-3.4-22.1l-1.4,0.4C889.1,13.7,565.9,10,498.6,10c-64.3,0-362.4,3.3-413.9,63.9l-3.4-1.7l-1.4,9c-1.8,3.7-3,7.6-3,11.7c0,1.4,0.3,2.6,0.6,4l-0.3,2.1c-1.1,7-25.4,171.9,42.9,336.2C220.5,640,194.7,828.8,183.6,885c-3.3,6.6-4.4,13.2-4.5,19.4l-4.2,15.3l7.4,2.5C195.7,955.1,259,990,513,990c186.6,0,278.2-18.2,300.4-61.6l11.1-5.5l-4.3-15.6c-0.1-0.2-0.6-2.3-1.5-6.1c-0.3-5.1-1.3-9.9-3-14.5C804.3,826.4,781.6,641.1,880.4,439.5z M778.1,899c0.1,0.6,0.3,1.5,0.4,2.1c-33.1,13.1-122.7,42.6-253,42.6c-97.1,0-197.5-16.2-298.8-48.2c19.2-13.4,82-36.5,286.2-36.5C725.2,859,769.7,884.8,778.1,899z M877.3,92.8c-1.8,1.1-4,2.3-6.5,3.4c-26,7.2-52,14-77.8,19.8c-66.9,11.4-168.1,20.5-294.4,20.5c-148.1,0-261.7-12.5-325.9-26.7c-22.4-7-39.5-13.4-50.8-18.1c33.9-19,172.6-42.7,376.7-42.7C706.3,49.1,846.5,73.6,877.3,92.8z M155.7,419c-48.2-116-46.3-236-42.6-287.8c11.1,5.1,24.2,9.5,39,13.5c64.1,21,174.5,47.3,325.9,47.3c102.6,0,209.1-12.4,317.6-36.6c27.9-4.8,53.3-10.8,73.7-18.2c5.7-1.5,11.4-2.9,17.1-4.5c4,49.2,7.5,172.2-41.8,290.8c-85.8,175-84.9,335.8-74.8,424.1c-47.1-19.1-129.9-27.6-257.1-27.6c-155.1,0-239.1,13.1-284,30.7C240,764.6,244,599,155.7,419z"/><path d="M305.1,743.7l38,9.4c1.3-5.5,32.5-134.9-37.6-275.1c-50.7-101.4-56.5-203.3-56.6-204.3l-39,2c0.2,4.5,6.1,110.8,60.7,219.8C333.8,622.3,305.4,742.6,305.1,743.7z"/></g><g></g><g></g><g></g><g></g><g></g><g></g><g></g><g></g><g></g><g></g><g></g><g></g><g></g><g></g><g></g></g>
</svg>