<?xml version="1.0" encoding="utf-8" standalone="yes"?>
<!DOCTYPE svg PUBLIC "-//W3C//DTD SVG 1.1//EN" "http://www.w3.org/Graphics/SVG/1.1/DTD/svg11.dtd">
<!-- Svg Vector Icons : http://www.onlinewebfonts.com/icon --><svg xmlns="http://www.w3.org/2000/svg" xmlns:xlink="http://www.w3.org/1999/xlink" version="1.1" x="0px" y="0px" viewBox="0 0 1000 1000" enable-background="new 0 0 1000 1000" xml:space="preserve" style="zoom: 1;"><metadata> Svg Vector Icons : http://www.onlinewebfonts.com/icon </metadata><g fill="white"><g transform="translate(0.000000,512.000000) scale(0.100000,-0.100000)"><path d="M3307.1,5004c-212.6-53.6-400.3-210.7-498-417.5c-55.6-116.8-61.3-143.6-61.3-319.8c0-178.1,3.8-201.1,61.3-317.9c74.7-153.2,212.6-287.3,365.8-358.2c95.8-46,132.2-51.7,310.3-51.7c189.6,0,210.7,3.8,329.4,63.2c88.1,44.1,160.9,97.7,231.7,176.2l103.4,114.9h415.6h413.7l-3.8-344.8l-5.7-346.7l-159-63.2c-346.7-139.8-628.2-398.4-796.7-733.6c-32.6-67-65.1-103.4-93.8-109.2c-23-5.8-109.2-23-191.5-38.3C2832.1,2081.4,2062.2,1388,1773,499.4c-76.6-235.6-107.2-388.8-122.6-630.1l-13.4-180l-181.9-9.6c-260.5-15.3-400.3-93.8-505.6-287.3c-151.3-279.6-30.6-635.9,260.5-768l101.5-46H2384c1049.5,0,1074.4,0,1160.6,40.2c264.3,122.6,394.6,396.4,316,664.6c-44.1,151.3-134.1,258.6-277.7,333.3c-107.2,57.5-136,63.2-283.5,63.2h-162.8l13.4,120.7c15.3,143.6,82.4,342.8,155.1,467.3c137.9,241.3,465.4,469.2,743.1,522.9l128.3,23l116.8-118.8c298.8-300.7,647.3-446.3,1068.7-448.2c413.7,0,750.8,136,1049.5,425.2l143.7,137.9h1281.3H9116v756.5v756.5H7930.5H6745l-21.1,59.4c-38.3,111.1-195.4,321.7-344.7,461.6c-153.2,145.6-337.1,256.7-524.8,319.9l-99.6,34.5l-5.7,346.7l-3.8,348.6l425.2-1.9h427.1l57.5-80.4c76.6-105.3,195.4-193.4,329.4-243.2c93.8-34.5,139.8-40.2,293-34.5c151.3,7.7,199.2,17.2,287.3,61.3c141.7,72.8,277.7,206.8,350.5,346.7c51.7,99.6,59.4,139.8,67,296.9c5.7,153.2,0,199.2-34.5,293c-212.6,565-942.3,662.7-1313.9,176.2l-49.8-67H5362.2h-1220l-53.6,78.5c-120.6,172.4-333.3,285.4-561.2,296.9C3446.9,5019.3,3347.3,5013.6,3307.1,5004z"></path><path d="M2023.9-3101.3c-396.5-752.7-423.3-827.4-383-1047.6c99.6-532.4,691.4-800.6,1139.6-515.2c296.9,187.7,425.2,555.4,310.3,882.9c-24.9,70.9-695.2,1354.1-706.7,1354.1C2382.1-2427.1,2219.3-2731.7,2023.9-3101.3z"></path></g></g></svg>